<svg xmlns="http://www.w3.org/2000/svg" viewBox="0 0 600 700">
  <rect width="600" height="700" fill="#f0f0f0"/>
  <g transform="translate(300,350)">
    <path d="M0,-150 C80,-100 120,0 80,100 C40,180 -40,180 -80,100 C-120,0 -80,-100 0,-150Z" fill="none" stroke="#c0c0c0" stroke-width="2"/>
    <path d="M0,-120 C60,-80 90,0 60,80 C30,140 -30,140 -60,80 C-90,0 -60,-80 0,-120Z" fill="none" stroke="#d0d0d0" stroke-width="2"/>
    <path d="M0,-90 C40,-60 60,0 40,60 C20,100 -20,100 -40,60 C-60,0 -40,-60 0,-90Z" fill="none" stroke="#e0e0e0" stroke-width="2"/>
  </g>
</svg>
