<svg xmlns="http://www.w3.org/2000/svg" viewBox="0 0 800 600">
  <rect width="800" height="600" fill="#0a1f0d"/>
  <rect x="0" y="0" width="800" height="600" fill="url(#forest)"/>
  <defs>
    <linearGradient id="forest" x1="0" y1="0" x2="0" y2="1">
      <stop offset="0%" stop-color="#1a3a2a"/>
      <stop offset="100%" stop-color="#0a0f0d"/>
    </linearGradient>
  </defs>
  <g opacity="0.4">
    <rect x="100" y="50" width="40" height="500" rx="5" fill="#2d6a4f"/>
    <rect x="200" y="80" width="50" height="470" rx="5" fill="#1d4a3a"/>
    <rect x="350" y="30" width="45" height="520" rx="5" fill="#2d6a4f"/>
    <rect x="480" y="60" width="55" height="490" rx="5" fill="#1d4a3a"/>
    <rect x="600" y="40" width="40" height="510" rx="5" fill="#2d6a4f"/>
    <rect x="700" y="70" width="48" height="480" rx="5" fill="#1d4a3a"/>
    <ellipse cx="120" cy="100" rx="80" ry="60" fill="#1d5a3f"/>
    <ellipse cx="225" cy="80" rx="90" ry="70" fill="#1a4a35"/>
    <ellipse cx="372" cy="90" rx="85" ry="65" fill="#1d5a3f"/>
    <ellipse cx="507" cy="75" rx="95" ry="72" fill="#1a4a35"/>
    <ellipse cx="620" cy="95" rx="80" ry="60" fill="#1d5a3f"/>
    <ellipse cx="720" cy="85" rx="75" ry="55" fill="#1a4a35"/>
  </g>
</svg>
